<svg width="24" height="24" viewBox="0 0 24 24" fill="none" xmlns="http://www.w3.org/2000/svg">
<path d="M23.2969 16.9688L18.0469 14.7188C17.9062 14.6719 17.7656 14.625 17.5781 14.625C17.25 14.625 16.9219 14.8125 16.7344 15.0469L14.3906 17.9062C10.7344 16.1719 7.82812 13.2656 6.09375 9.60938L8.95312 7.26562C9.1875 7.07812 9.375 6.75 9.375 6.375C9.375 6.23438 9.32812 6.09375 9.28125 5.95312L7.03125 0.703125C6.84375 0.28125 6.42188 0 5.95312 0C5.90625 0 5.8125 0.046875 5.71875 0.046875L0.84375 1.17188C0.328125 1.3125 0 1.73438 0 2.25C0 14.2969 9.70312 24 21.75 24C22.2656 24 22.6875 23.6719 22.8281 23.1562L23.9531 18.2812C23.9531 18.1875 23.9531 18.0938 23.9531 18.0469C23.9531 17.5781 23.6719 17.1562 23.2969 16.9688Z" fill="#272142"/>
</svg>
